<?xml version="1.0" standalone="no"?><!DOCTYPE svg PUBLIC "-//W3C//DTD SVG 1.1//EN" "http://www.w3.org/Graphics/SVG/1.1/DTD/svg11.dtd"><svg t="1595603908832" class="icon" viewBox="0 0 1024 1024" version="1.1" xmlns="http://www.w3.org/2000/svg" p-id="3018" data-spm-anchor-id="a313x.7781069.0.i0" xmlns:xlink="http://www.w3.org/1999/xlink" width="200" height="200"><defs><style type="text/css"></style></defs><path d="M512 224c-159.056 0-288 128.944-288 288s128.944 288 288 288 288-128.944 288-288-128.944-288-288-288z m0-48c185.568 0 336 150.432 336 336s-150.432 336-336 336-336-150.432-336-336 150.432-336 336-336z m23.12 402.016l30.64-30.656a16 16 0 0 1 11.312-4.688h28.304a14.464 14.464 0 0 1 10.224 24.704l-97.808 97.808a11.136 11.136 0 0 1-15.744 0l-97.808-97.808a14.464 14.464 0 0 1 10.24-24.704h28.288a16 16 0 0 1 11.312 4.688l32.88 32.88V368a16 16 0 0 1 16-16h16.16a16 16 0 0 1 16 16v210.016z" p-id="3019" data-spm-anchor-id="a313x.7781069.0.i1" class="selected"></path></svg>